<mxfile host="app.diagrams.net" modified="2021-02-17T10:35:45.313Z" agent="5.0 (Windows NT 10.0; Win64; x64) AppleWebKit/537.36 (KHTML, like Gecko) Chrome/88.0.4324.182 Safari/537.36" etag="isRxfooAzXiT-dkB7pSy" version="14.3.2" type="github">
  <diagram id="C5RBs43oDa-KdzZeNtuy" name="Page-1">
    <mxGraphModel dx="1422" dy="706" grid="1" gridSize="10" guides="1" tooltips="1" connect="1" arrows="1" fold="1" page="1" pageScale="1" pageWidth="1169" pageHeight="827" math="0" shadow="0">
      <root>
        <mxCell id="WIyWlLk6GJQsqaUBKTNV-0" />
        <mxCell id="WIyWlLk6GJQsqaUBKTNV-1" parent="WIyWlLk6GJQsqaUBKTNV-0" />
        <mxCell id="D_1ydAFC-er1ZRts4DlC-34" value="" style="edgeStyle=orthogonalEdgeStyle;rounded=0;orthogonalLoop=1;jettySize=auto;html=1;shadow=0;labelBackgroundColor=none;endArrow=block;endFill=0;endSize=8;strokeWidth=1;align=left;" edge="1" parent="WIyWlLk6GJQsqaUBKTNV-1" target="D_1ydAFC-er1ZRts4DlC-33">
          <mxGeometry relative="1" as="geometry">
            <mxPoint x="630" y="90" as="sourcePoint" />
            <Array as="points">
              <mxPoint x="630" y="110" />
              <mxPoint x="480" y="110" />
            </Array>
          </mxGeometry>
        </mxCell>
        <mxCell id="D_1ydAFC-er1ZRts4DlC-36" value="" style="edgeStyle=orthogonalEdgeStyle;rounded=0;orthogonalLoop=1;jettySize=auto;html=1;shadow=0;labelBackgroundColor=none;endArrow=block;endFill=0;endSize=8;strokeWidth=1;align=left;exitX=0.5;exitY=1;exitDx=0;exitDy=0;" edge="1" parent="WIyWlLk6GJQsqaUBKTNV-1" source="D_1ydAFC-er1ZRts4DlC-30" target="D_1ydAFC-er1ZRts4DlC-35">
          <mxGeometry relative="1" as="geometry">
            <Array as="points">
              <mxPoint x="630" y="110" />
              <mxPoint x="760" y="110" />
            </Array>
          </mxGeometry>
        </mxCell>
        <mxCell id="D_1ydAFC-er1ZRts4DlC-30" value="role" style="whiteSpace=wrap;html=1;rounded=1;shadow=0;strokeWidth=1;glass=0;" vertex="1" parent="WIyWlLk6GJQsqaUBKTNV-1">
          <mxGeometry x="570" y="30" width="120" height="60" as="geometry" />
        </mxCell>
        <mxCell id="D_1ydAFC-er1ZRts4DlC-38" value="Yes" style="edgeStyle=orthogonalEdgeStyle;rounded=0;orthogonalLoop=1;jettySize=auto;html=1;shadow=0;labelBackgroundColor=none;endArrow=block;endFill=0;endSize=8;strokeWidth=1;align=left;" edge="1" parent="WIyWlLk6GJQsqaUBKTNV-1" source="D_1ydAFC-er1ZRts4DlC-33" target="D_1ydAFC-er1ZRts4DlC-37">
          <mxGeometry x="0.6667" y="20" relative="1" as="geometry">
            <mxPoint as="offset" />
          </mxGeometry>
        </mxCell>
        <mxCell id="D_1ydAFC-er1ZRts4DlC-33" value="seeker" style="rhombus;whiteSpace=wrap;html=1;rounded=1;shadow=0;strokeWidth=1;glass=0;" vertex="1" parent="WIyWlLk6GJQsqaUBKTNV-1">
          <mxGeometry x="440" y="140" width="80" height="80" as="geometry" />
        </mxCell>
        <mxCell id="D_1ydAFC-er1ZRts4DlC-41" value="Yes" style="edgeStyle=orthogonalEdgeStyle;rounded=0;orthogonalLoop=1;jettySize=auto;html=1;shadow=0;labelBackgroundColor=none;endArrow=block;endFill=0;endSize=8;strokeWidth=1;align=left;" edge="1" parent="WIyWlLk6GJQsqaUBKTNV-1" source="D_1ydAFC-er1ZRts4DlC-35" target="D_1ydAFC-er1ZRts4DlC-40">
          <mxGeometry relative="1" as="geometry" />
        </mxCell>
        <mxCell id="D_1ydAFC-er1ZRts4DlC-35" value="carrier" style="rhombus;whiteSpace=wrap;html=1;rounded=1;shadow=0;strokeWidth=1;glass=0;" vertex="1" parent="WIyWlLk6GJQsqaUBKTNV-1">
          <mxGeometry x="720" y="130" width="80" height="80" as="geometry" />
        </mxCell>
        <mxCell id="D_1ydAFC-er1ZRts4DlC-43" value="" style="edgeStyle=orthogonalEdgeStyle;rounded=0;orthogonalLoop=1;jettySize=auto;html=1;shadow=0;labelBackgroundColor=none;endArrow=block;endFill=0;endSize=8;strokeWidth=1;align=left;" edge="1" parent="WIyWlLk6GJQsqaUBKTNV-1" source="D_1ydAFC-er1ZRts4DlC-37" target="D_1ydAFC-er1ZRts4DlC-42">
          <mxGeometry relative="1" as="geometry" />
        </mxCell>
        <mxCell id="D_1ydAFC-er1ZRts4DlC-47" style="edgeStyle=orthogonalEdgeStyle;rounded=0;orthogonalLoop=1;jettySize=auto;html=1;entryX=0.567;entryY=-0.017;entryDx=0;entryDy=0;entryPerimeter=0;shadow=0;labelBackgroundColor=none;endArrow=block;endFill=0;endSize=8;strokeWidth=1;align=left;" edge="1" parent="WIyWlLk6GJQsqaUBKTNV-1" source="D_1ydAFC-er1ZRts4DlC-37" target="D_1ydAFC-er1ZRts4DlC-45">
          <mxGeometry relative="1" as="geometry" />
        </mxCell>
        <mxCell id="D_1ydAFC-er1ZRts4DlC-37" value="action" style="rhombus;whiteSpace=wrap;html=1;rounded=1;shadow=0;strokeWidth=1;glass=0;" vertex="1" parent="WIyWlLk6GJQsqaUBKTNV-1">
          <mxGeometry x="440" y="239" width="80" height="80" as="geometry" />
        </mxCell>
        <mxCell id="D_1ydAFC-er1ZRts4DlC-40" value="&lt;span&gt;action&lt;/span&gt;" style="rhombus;whiteSpace=wrap;html=1;rounded=1;shadow=0;strokeWidth=1;glass=0;" vertex="1" parent="WIyWlLk6GJQsqaUBKTNV-1">
          <mxGeometry x="720" y="239" width="80" height="80" as="geometry" />
        </mxCell>
        <mxCell id="D_1ydAFC-er1ZRts4DlC-57" value="" style="edgeStyle=orthogonalEdgeStyle;rounded=0;orthogonalLoop=1;jettySize=auto;html=1;shadow=0;labelBackgroundColor=none;endArrow=block;endFill=0;endSize=8;strokeWidth=1;align=left;" edge="1" parent="WIyWlLk6GJQsqaUBKTNV-1" source="D_1ydAFC-er1ZRts4DlC-42" target="D_1ydAFC-er1ZRts4DlC-56">
          <mxGeometry relative="1" as="geometry" />
        </mxCell>
        <mxCell id="D_1ydAFC-er1ZRts4DlC-42" value="隨機往四周走" style="whiteSpace=wrap;html=1;rounded=1;shadow=0;strokeWidth=1;glass=0;" vertex="1" parent="WIyWlLk6GJQsqaUBKTNV-1">
          <mxGeometry x="332.5" y="399" width="120" height="60" as="geometry" />
        </mxCell>
        <mxCell id="D_1ydAFC-er1ZRts4DlC-45" value="空手返巢" style="whiteSpace=wrap;html=1;rounded=1;shadow=0;strokeWidth=1;glass=0;" vertex="1" parent="WIyWlLk6GJQsqaUBKTNV-1">
          <mxGeometry x="482.5" y="399" width="120" height="60" as="geometry" />
        </mxCell>
        <mxCell id="D_1ydAFC-er1ZRts4DlC-48" value="go" style="text;html=1;strokeColor=none;fillColor=none;align=center;verticalAlign=middle;whiteSpace=wrap;rounded=0;fontColor=#000000;" vertex="1" parent="WIyWlLk6GJQsqaUBKTNV-1">
          <mxGeometry x="332.5" y="369" width="40" height="20" as="geometry" />
        </mxCell>
        <mxCell id="D_1ydAFC-er1ZRts4DlC-49" value="return" style="text;html=1;strokeColor=none;fillColor=none;align=center;verticalAlign=middle;whiteSpace=wrap;rounded=0;fontColor=#000000;" vertex="1" parent="WIyWlLk6GJQsqaUBKTNV-1">
          <mxGeometry x="557.5" y="369" width="40" height="20" as="geometry" />
        </mxCell>
        <mxCell id="D_1ydAFC-er1ZRts4DlC-50" value="" style="edgeStyle=orthogonalEdgeStyle;rounded=0;orthogonalLoop=1;jettySize=auto;html=1;shadow=0;labelBackgroundColor=none;endArrow=block;endFill=0;endSize=8;strokeWidth=1;align=left;" edge="1" parent="WIyWlLk6GJQsqaUBKTNV-1" target="D_1ydAFC-er1ZRts4DlC-52" source="D_1ydAFC-er1ZRts4DlC-40">
          <mxGeometry relative="1" as="geometry">
            <mxPoint x="775" y="350" as="sourcePoint" />
            <Array as="points">
              <mxPoint x="760" y="360" />
              <mxPoint x="695" y="360" />
            </Array>
          </mxGeometry>
        </mxCell>
        <mxCell id="D_1ydAFC-er1ZRts4DlC-51" style="edgeStyle=orthogonalEdgeStyle;rounded=0;orthogonalLoop=1;jettySize=auto;html=1;entryX=0.567;entryY=-0.017;entryDx=0;entryDy=0;entryPerimeter=0;shadow=0;labelBackgroundColor=none;endArrow=block;endFill=0;endSize=8;strokeWidth=1;align=left;exitX=0.5;exitY=1;exitDx=0;exitDy=0;" edge="1" parent="WIyWlLk6GJQsqaUBKTNV-1" target="D_1ydAFC-er1ZRts4DlC-53" source="D_1ydAFC-er1ZRts4DlC-40">
          <mxGeometry relative="1" as="geometry">
            <mxPoint x="770" y="330" as="sourcePoint" />
            <Array as="points">
              <mxPoint x="760" y="360" />
              <mxPoint x="853" y="360" />
              <mxPoint x="853" y="398" />
            </Array>
          </mxGeometry>
        </mxCell>
        <mxCell id="D_1ydAFC-er1ZRts4DlC-61" value="" style="edgeStyle=orthogonalEdgeStyle;rounded=0;orthogonalLoop=1;jettySize=auto;html=1;shadow=0;labelBackgroundColor=none;endArrow=block;endFill=0;endSize=8;strokeWidth=1;align=left;" edge="1" parent="WIyWlLk6GJQsqaUBKTNV-1" source="D_1ydAFC-er1ZRts4DlC-52" target="D_1ydAFC-er1ZRts4DlC-60">
          <mxGeometry relative="1" as="geometry" />
        </mxCell>
        <mxCell id="D_1ydAFC-er1ZRts4DlC-52" value="按照原路到食物" style="whiteSpace=wrap;html=1;rounded=1;shadow=0;strokeWidth=1;glass=0;" vertex="1" parent="WIyWlLk6GJQsqaUBKTNV-1">
          <mxGeometry x="627.5" y="399" width="120" height="60" as="geometry" />
        </mxCell>
        <mxCell id="D_1ydAFC-er1ZRts4DlC-77" value="" style="edgeStyle=orthogonalEdgeStyle;rounded=0;orthogonalLoop=1;jettySize=auto;html=1;shadow=0;labelBackgroundColor=none;endArrow=block;endFill=0;endSize=8;strokeWidth=1;align=left;" edge="1" parent="WIyWlLk6GJQsqaUBKTNV-1" source="D_1ydAFC-er1ZRts4DlC-53" target="D_1ydAFC-er1ZRts4DlC-76">
          <mxGeometry relative="1" as="geometry" />
        </mxCell>
        <mxCell id="D_1ydAFC-er1ZRts4DlC-53" value="攜帶食物返巢&lt;br&gt;沿路增添費洛蒙" style="whiteSpace=wrap;html=1;rounded=1;shadow=0;strokeWidth=1;glass=0;" vertex="1" parent="WIyWlLk6GJQsqaUBKTNV-1">
          <mxGeometry x="777.5" y="399" width="120" height="60" as="geometry" />
        </mxCell>
        <mxCell id="D_1ydAFC-er1ZRts4DlC-54" value="go" style="text;html=1;strokeColor=none;fillColor=none;align=center;verticalAlign=middle;whiteSpace=wrap;rounded=0;fontColor=#000000;" vertex="1" parent="WIyWlLk6GJQsqaUBKTNV-1">
          <mxGeometry x="627.5" y="369" width="40" height="20" as="geometry" />
        </mxCell>
        <mxCell id="D_1ydAFC-er1ZRts4DlC-55" value="return" style="text;html=1;strokeColor=none;fillColor=none;align=center;verticalAlign=middle;whiteSpace=wrap;rounded=0;fontColor=#000000;" vertex="1" parent="WIyWlLk6GJQsqaUBKTNV-1">
          <mxGeometry x="852.5" y="369" width="40" height="20" as="geometry" />
        </mxCell>
        <mxCell id="D_1ydAFC-er1ZRts4DlC-59" value="" style="edgeStyle=orthogonalEdgeStyle;rounded=0;orthogonalLoop=1;jettySize=auto;html=1;shadow=0;labelBackgroundColor=none;endArrow=block;endFill=0;endSize=8;strokeWidth=1;align=left;" edge="1" parent="WIyWlLk6GJQsqaUBKTNV-1" source="D_1ydAFC-er1ZRts4DlC-56" target="D_1ydAFC-er1ZRts4DlC-58">
          <mxGeometry relative="1" as="geometry" />
        </mxCell>
        <mxCell id="D_1ydAFC-er1ZRts4DlC-71" value="" style="edgeStyle=orthogonalEdgeStyle;rounded=0;orthogonalLoop=1;jettySize=auto;html=1;shadow=0;labelBackgroundColor=none;endArrow=block;endFill=0;endSize=8;strokeWidth=1;align=left;" edge="1" parent="WIyWlLk6GJQsqaUBKTNV-1" source="D_1ydAFC-er1ZRts4DlC-56" target="D_1ydAFC-er1ZRts4DlC-70">
          <mxGeometry relative="1" as="geometry" />
        </mxCell>
        <mxCell id="D_1ydAFC-er1ZRts4DlC-56" value="找到食物" style="rhombus;whiteSpace=wrap;html=1;rounded=1;shadow=0;strokeWidth=1;glass=0;arcSize=35;" vertex="1" parent="WIyWlLk6GJQsqaUBKTNV-1">
          <mxGeometry x="352.5" y="550" width="80" height="80" as="geometry" />
        </mxCell>
        <mxCell id="D_1ydAFC-er1ZRts4DlC-58" value="role = carrier&lt;br&gt;action = return" style="whiteSpace=wrap;html=1;rounded=1;shadow=0;strokeWidth=1;glass=0;" vertex="1" parent="WIyWlLk6GJQsqaUBKTNV-1">
          <mxGeometry x="332.5" y="670" width="120" height="60" as="geometry" />
        </mxCell>
        <mxCell id="D_1ydAFC-er1ZRts4DlC-63" value="" style="edgeStyle=orthogonalEdgeStyle;rounded=0;orthogonalLoop=1;jettySize=auto;html=1;shadow=0;labelBackgroundColor=none;endArrow=block;endFill=0;endSize=8;strokeWidth=1;align=left;" edge="1" parent="WIyWlLk6GJQsqaUBKTNV-1" source="D_1ydAFC-er1ZRts4DlC-60" target="D_1ydAFC-er1ZRts4DlC-62">
          <mxGeometry relative="1" as="geometry" />
        </mxCell>
        <mxCell id="D_1ydAFC-er1ZRts4DlC-67" value="" style="edgeStyle=orthogonalEdgeStyle;rounded=0;orthogonalLoop=1;jettySize=auto;html=1;shadow=0;labelBackgroundColor=none;endArrow=block;endFill=0;endSize=8;strokeWidth=1;align=left;" edge="1" parent="WIyWlLk6GJQsqaUBKTNV-1" source="D_1ydAFC-er1ZRts4DlC-60" target="D_1ydAFC-er1ZRts4DlC-66">
          <mxGeometry relative="1" as="geometry" />
        </mxCell>
        <mxCell id="D_1ydAFC-er1ZRts4DlC-60" value="食物已空" style="rhombus;whiteSpace=wrap;html=1;rounded=1;shadow=0;strokeWidth=1;glass=0;" vertex="1" parent="WIyWlLk6GJQsqaUBKTNV-1">
          <mxGeometry x="647.5" y="550" width="80" height="80" as="geometry" />
        </mxCell>
        <mxCell id="D_1ydAFC-er1ZRts4DlC-62" value="空手返巢&lt;br&gt;沿路揮發費洛蒙" style="whiteSpace=wrap;html=1;rounded=1;shadow=0;strokeWidth=1;glass=0;" vertex="1" parent="WIyWlLk6GJQsqaUBKTNV-1">
          <mxGeometry x="490" y="670" width="120" height="60" as="geometry" />
        </mxCell>
        <mxCell id="D_1ydAFC-er1ZRts4DlC-64" value="Yes" style="text;html=1;strokeColor=none;fillColor=none;align=center;verticalAlign=middle;whiteSpace=wrap;rounded=0;fontColor=#000000;" vertex="1" parent="WIyWlLk6GJQsqaUBKTNV-1">
          <mxGeometry x="595" y="560" width="40" height="20" as="geometry" />
        </mxCell>
        <mxCell id="D_1ydAFC-er1ZRts4DlC-65" value="Yes" style="text;html=1;strokeColor=none;fillColor=none;align=center;verticalAlign=middle;whiteSpace=wrap;rounded=0;fontColor=#000000;" vertex="1" parent="WIyWlLk6GJQsqaUBKTNV-1">
          <mxGeometry x="420" y="630" width="40" height="20" as="geometry" />
        </mxCell>
        <mxCell id="D_1ydAFC-er1ZRts4DlC-66" value="action = return" style="whiteSpace=wrap;html=1;rounded=1;shadow=0;strokeWidth=1;glass=0;" vertex="1" parent="WIyWlLk6GJQsqaUBKTNV-1">
          <mxGeometry x="627.5" y="670" width="120" height="60" as="geometry" />
        </mxCell>
        <mxCell id="D_1ydAFC-er1ZRts4DlC-68" value="No" style="text;html=1;strokeColor=none;fillColor=none;align=center;verticalAlign=middle;whiteSpace=wrap;rounded=0;fontColor=#000000;" vertex="1" parent="WIyWlLk6GJQsqaUBKTNV-1">
          <mxGeometry x="700" y="630" width="40" height="20" as="geometry" />
        </mxCell>
        <mxCell id="D_1ydAFC-er1ZRts4DlC-73" value="" style="edgeStyle=orthogonalEdgeStyle;rounded=0;orthogonalLoop=1;jettySize=auto;html=1;shadow=0;labelBackgroundColor=none;endArrow=block;endFill=0;endSize=8;strokeWidth=1;align=left;" edge="1" parent="WIyWlLk6GJQsqaUBKTNV-1" source="D_1ydAFC-er1ZRts4DlC-70" target="D_1ydAFC-er1ZRts4DlC-72">
          <mxGeometry relative="1" as="geometry" />
        </mxCell>
        <mxCell id="D_1ydAFC-er1ZRts4DlC-70" value="達到上限步數" style="rhombus;whiteSpace=wrap;html=1;rounded=1;shadow=0;strokeWidth=1;glass=0;arcSize=35;" vertex="1" parent="WIyWlLk6GJQsqaUBKTNV-1">
          <mxGeometry x="200" y="550" width="80" height="80" as="geometry" />
        </mxCell>
        <mxCell id="D_1ydAFC-er1ZRts4DlC-72" value="action = return" style="whiteSpace=wrap;html=1;rounded=1;shadow=0;strokeWidth=1;glass=0;arcSize=35;" vertex="1" parent="WIyWlLk6GJQsqaUBKTNV-1">
          <mxGeometry x="180" y="670" width="120" height="60" as="geometry" />
        </mxCell>
        <mxCell id="D_1ydAFC-er1ZRts4DlC-74" value="Yes" style="text;html=1;strokeColor=none;fillColor=none;align=center;verticalAlign=middle;whiteSpace=wrap;rounded=0;fontColor=#000000;" vertex="1" parent="WIyWlLk6GJQsqaUBKTNV-1">
          <mxGeometry x="260" y="630" width="40" height="20" as="geometry" />
        </mxCell>
        <mxCell id="D_1ydAFC-er1ZRts4DlC-75" value="No" style="text;html=1;strokeColor=none;fillColor=none;align=center;verticalAlign=middle;whiteSpace=wrap;rounded=0;fontColor=#000000;" vertex="1" parent="WIyWlLk6GJQsqaUBKTNV-1">
          <mxGeometry x="290" y="560" width="40" height="20" as="geometry" />
        </mxCell>
        <mxCell id="D_1ydAFC-er1ZRts4DlC-79" value="" style="edgeStyle=orthogonalEdgeStyle;rounded=0;orthogonalLoop=1;jettySize=auto;html=1;shadow=0;labelBackgroundColor=none;endArrow=block;endFill=0;endSize=8;strokeWidth=1;align=left;" edge="1" parent="WIyWlLk6GJQsqaUBKTNV-1" source="D_1ydAFC-er1ZRts4DlC-76" target="D_1ydAFC-er1ZRts4DlC-78">
          <mxGeometry relative="1" as="geometry" />
        </mxCell>
        <mxCell id="D_1ydAFC-er1ZRts4DlC-76" value="走到巢穴" style="rhombus;whiteSpace=wrap;html=1;rounded=1;shadow=0;strokeWidth=1;glass=0;" vertex="1" parent="WIyWlLk6GJQsqaUBKTNV-1">
          <mxGeometry x="797.5" y="550" width="80" height="80" as="geometry" />
        </mxCell>
        <mxCell id="D_1ydAFC-er1ZRts4DlC-78" value="&lt;span&gt;action = go&lt;/span&gt;" style="whiteSpace=wrap;html=1;rounded=1;shadow=0;strokeWidth=1;glass=0;" vertex="1" parent="WIyWlLk6GJQsqaUBKTNV-1">
          <mxGeometry x="777.5" y="670" width="120" height="60" as="geometry" />
        </mxCell>
      </root>
    </mxGraphModel>
  </diagram>
</mxfile>
